<svg width="638" height="89" viewBox="0 0 638 89" fill="none" xmlns="http://www.w3.org/2000/svg">
<path d="M0.417969 87L30.178 0.199994H46.422L76.182 87H59.938L52.746 64.06H23.854L16.662 87H0.417969ZM28.318 49.8H48.158L38.238 18.304L28.318 49.8ZM114.437 74.228V87.868C94.1008 87.868 83.3128 77.576 83.3128 58.48V0.199994H98.1928V25H112.329V38.64H98.1928V58.356C98.1928 69.64 102.781 74.228 114.437 74.228ZM141.397 0.199994V29.34C144.993 25.992 150.077 23.884 157.021 23.884C175.497 23.884 183.557 39.26 183.557 50.048V87H168.677V50.42C168.677 41.616 162.229 37.648 155.037 37.648C147.845 37.648 141.397 41.616 141.397 50.42V87H126.517V0.199994H141.397ZM197.939 87V0.199994H212.819V87H197.939ZM241.976 47.32H273.1C270.496 41.244 264.916 37.772 257.476 37.772C250.16 37.772 244.58 41.244 241.976 47.32ZM257.476 74.476C263.676 74.476 268.512 72.12 271.488 67.78H287.732C283.64 80.304 272.604 88.116 257.6 88.116C238.38 88.116 225.484 75.22 225.484 56C225.484 36.904 238.38 24.132 257.6 24.132C276.82 24.132 289.592 36.904 289.592 56C289.592 57.736 289.468 59.348 289.344 60.96H240.86C242.472 69.516 248.672 74.476 257.476 74.476ZM333.523 74.228V87.868C313.187 87.868 302.399 77.576 302.399 58.48V0.199994H317.279V25H331.415V38.64H317.279V58.356C317.279 69.64 321.867 74.228 333.523 74.228ZM359.148 47.32H390.272C387.668 41.244 382.088 37.772 374.648 37.772C367.332 37.772 361.752 41.244 359.148 47.32ZM374.648 74.476C380.848 74.476 385.684 72.12 388.66 67.78H404.904C400.812 80.304 389.776 88.116 374.772 88.116C355.552 88.116 342.656 75.22 342.656 56C342.656 36.904 355.552 24.132 374.772 24.132C393.992 24.132 406.764 36.904 406.764 56C406.764 57.736 406.64 59.348 406.516 60.96H358.032C359.644 69.516 365.844 74.476 374.648 74.476ZM419.447 87V0.199994H434.947V36.036H472.891V0.199994H488.391V87H472.891V50.296H434.947V87H419.447ZM530.771 88.116C510.311 88.116 502.251 72.74 502.251 61.952V25H517.131V61.58C517.131 70.26 523.579 74.352 530.771 74.352C537.963 74.352 544.411 70.26 544.411 61.58V25H559.291V61.952C559.291 72.74 551.231 88.116 530.771 88.116ZM573.555 0.199994H588.435V31.076C591.411 27.232 597.735 24.008 606.663 24.008C624.767 24.008 637.663 36.904 637.663 56.124C637.663 75.22 624.767 87.992 605.919 87.992C587.815 87.992 573.555 76.088 573.555 56.124V0.199994ZM622.783 56C622.783 44.468 615.963 37.648 605.547 37.648C595.255 37.648 588.435 44.468 588.435 56C588.435 67.532 595.255 74.352 605.547 74.352C615.963 74.352 622.783 67.532 622.783 56Z" fill="white"/>
</svg>
