<svg width="630" height="114" viewBox="0 0 630 114" fill="none" xmlns="http://www.w3.org/2000/svg">
<path d="M39.5478 0.679999C47.9798 0.679999 55.5438 3.036 63.6038 8.244L54.4278 24.116C48.8478 19.9 44.3838 18.04 39.9198 18.04C34.2158 18.04 30.6198 20.768 30.6198 25.232C30.6198 29.2 32.7278 31.184 41.1598 35.152C54.7998 41.6 59.5118 47.428 59.5118 58.34C59.5118 74.956 46.3678 86.612 27.8918 86.612C17.9718 86.612 11.0278 84.38 -0.00818741 77.56L9.41581 61.688C16.8558 66.772 21.1958 68.508 26.8998 68.508C33.4718 68.508 37.9358 65.16 37.9358 60.076C37.9358 56.48 36.0758 54.496 28.2638 50.652C13.5078 43.212 9.16781 37.88 9.16781 26.72C9.16781 11.716 22.0638 0.679999 39.5478 0.679999ZM74.1806 29.572H94.6406L93.0286 36.64C100.221 30.192 105.305 27.96 112.497 27.96C126.509 27.96 135.313 38.252 135.313 54.744C135.313 73.964 124.773 86.612 108.901 86.612C100.469 86.612 94.3926 83.264 88.9366 75.576L84.2246 113.396H63.8886L74.1806 29.572ZM101.461 70.616C109.025 70.616 114.481 64.292 114.481 55.612C114.481 48.544 110.265 44.08 103.569 44.08C96.0046 44.08 90.4246 50.528 90.4246 58.96C90.4246 66.028 94.7646 70.616 101.461 70.616ZM178.122 27.96C197.59 27.96 210.238 39.12 210.238 56.356C210.238 74.212 196.846 86.612 177.502 86.612C157.662 86.612 144.27 74.956 144.27 57.472C144.27 40.236 158.282 27.96 178.122 27.96ZM176.386 70.616C183.95 70.616 189.406 64.292 189.406 55.612C189.406 48.544 185.19 44.08 178.37 44.08C170.806 44.08 165.102 50.528 165.102 58.96C165.102 66.028 169.566 70.616 176.386 70.616ZM225.433 29.572H245.893L244.281 37.136C250.605 31.432 254.945 29.572 262.757 29.572C263.625 29.572 264.989 29.696 266.725 29.82L264.493 48.668C261.269 46.932 258.789 46.188 255.193 46.188C246.761 46.188 243.413 50.156 241.925 61.44L239.073 85H218.613L225.433 29.572ZM310.219 45.32H299.307L294.347 85H274.011L278.847 45.32H270.167L272.027 29.572H280.831L282.939 11.344H303.399L301.167 29.572H312.079L310.219 45.32ZM375.691 2.29199H399.251L354.859 85H337.127L315.551 2.29199H337.871L347.295 39.988C348.907 46.312 349.279 48.42 349.899 55.116C351.263 50.776 352.627 47.552 354.611 43.832L375.691 2.29199ZM452.545 61.44H411.129C411.129 63.424 411.129 68.26 413.981 70.864C414.973 71.856 416.957 72.972 420.305 72.972C422.041 72.972 423.901 72.6 425.513 71.484C427.125 70.368 427.869 69.004 428.241 67.764H450.561C449.197 71.856 446.965 75.328 444.485 77.808C437.417 85.124 427.001 86.612 420.429 86.612C408.773 86.612 402.325 82.148 399.225 79.296C395.629 75.824 391.661 69.624 391.661 59.704C391.661 49.04 396.001 41.352 400.713 36.764C405.549 32.052 413.113 27.96 424.397 27.96C434.813 27.96 441.385 31.68 445.353 35.648C451.057 41.352 452.793 49.536 452.793 56.728C452.793 58.34 452.669 59.952 452.545 61.44ZM412.493 49.908H431.837C431.713 47.304 430.597 44.824 428.985 43.336C427.497 41.972 425.265 41.104 422.537 41.104C419.685 41.104 417.081 42.22 415.469 43.832C413.857 45.444 412.865 47.924 412.493 49.908ZM467.741 29.572H488.201L486.589 37.136C492.913 31.432 497.253 29.572 505.065 29.572C505.933 29.572 507.297 29.696 509.033 29.82L506.801 48.668C503.577 46.932 501.097 46.188 497.501 46.188C489.069 46.188 485.721 50.156 484.233 61.44L481.381 85H460.921L467.741 29.572ZM540.09 27.712C546.91 27.712 553.11 29.448 560.674 33.416L555.838 47.428C550.01 43.832 546.662 42.716 542.322 42.716C537.734 42.716 535.254 43.832 535.254 46.064C535.254 47.428 536.122 48.172 538.478 48.792L545.174 50.528C555.342 53.256 559.93 58.092 559.93 66.028C559.93 78.676 549.886 86.612 534.138 86.612C524.962 86.612 518.142 84.38 508.594 78.18L516.158 64.788C523.97 69.748 527.814 71.236 533.394 71.236C538.23 71.236 540.958 69.872 540.958 67.392C540.958 65.904 539.966 65.036 537.858 64.416L531.162 62.928C520.746 60.448 516.282 55.488 516.282 46.808C516.282 35.4 525.706 27.712 540.09 27.712ZM629.584 61.44H588.168C588.168 63.424 588.168 68.26 591.02 70.864C592.012 71.856 593.996 72.972 597.344 72.972C599.08 72.972 600.94 72.6 602.552 71.484C604.164 70.368 604.908 69.004 605.28 67.764H627.6C626.236 71.856 624.004 75.328 621.524 77.808C614.456 85.124 604.04 86.612 597.468 86.612C585.812 86.612 579.364 82.148 576.264 79.296C572.668 75.824 568.7 69.624 568.7 59.704C568.7 49.04 573.04 41.352 577.752 36.764C582.588 32.052 590.152 27.96 601.436 27.96C611.852 27.96 618.424 31.68 622.392 35.648C628.096 41.352 629.832 49.536 629.832 56.728C629.832 58.34 629.708 59.952 629.584 61.44ZM589.532 49.908H608.876C608.752 47.304 607.636 44.824 606.024 43.336C604.536 41.972 602.304 41.104 599.576 41.104C596.724 41.104 594.12 42.22 592.508 43.832C590.896 45.444 589.904 47.924 589.532 49.908Z" fill="white"/>
</svg>
